<mxfile host="app.diagrams.net" agent="Mozilla/5.0 (Windows NT 10.0; Win64; x64) AppleWebKit/537.36 (KHTML, like Gecko) Chrome/136.0.0.0 Safari/537.36" version="26.2.13">
  <diagram name="Страница — 1" id="xI7GtqTC5N3RrTUA1rMS">
    <mxGraphModel dx="1712" dy="908" grid="1" gridSize="10" guides="1" tooltips="1" connect="1" arrows="1" fold="1" page="1" pageScale="1" pageWidth="827" pageHeight="1169" math="0" shadow="0">
      <root>
        <mxCell id="0" />
        <mxCell id="1" parent="0" />
        <mxCell id="TfMtk5dUdcsSxjfKriaZ-11" value="NewsItem" style="swimlane;fontStyle=1;align=center;verticalAlign=top;childLayout=stackLayout;horizontal=1;startSize=36.8;horizontalStack=0;resizeParent=1;resizeParentMax=0;resizeLast=0;collapsible=0;marginBottom=0;" parent="1" vertex="1">
          <mxGeometry x="490" y="260" width="230" height="170" as="geometry" />
        </mxCell>
        <mxCell id="TfMtk5dUdcsSxjfKriaZ-12" value="+title: String {readOnly}&#xa;+filename: String {readOnly}&#xa;-content: String&#xa;-isLoaded: Boolean" style="text;strokeColor=none;fillColor=none;align=left;verticalAlign=top;spacingLeft=4;spacingRight=4;overflow=hidden;rotatable=0;points=[[0,0.5],[1,0.5]];portConstraint=eastwest;" parent="TfMtk5dUdcsSxjfKriaZ-11" vertex="1">
          <mxGeometry y="36.8" width="230" height="73.2" as="geometry" />
        </mxCell>
        <mxCell id="TfMtk5dUdcsSxjfKriaZ-13" style="line;strokeWidth=1;fillColor=none;align=left;verticalAlign=middle;spacingTop=-1;spacingLeft=3;spacingRight=3;rotatable=0;labelPosition=right;points=[];portConstraint=eastwest;strokeColor=inherit;" parent="TfMtk5dUdcsSxjfKriaZ-11" vertex="1">
          <mxGeometry y="110" width="230" height="8" as="geometry" />
        </mxCell>
        <mxCell id="TfMtk5dUdcsSxjfKriaZ-14" value="+NewsItem(title: String, filename: String)&#xa;+getContent(): String" style="text;strokeColor=none;fillColor=none;align=left;verticalAlign=top;spacingLeft=4;spacingRight=4;overflow=hidden;rotatable=0;points=[[0,0.5],[1,0.5]];portConstraint=eastwest;" parent="TfMtk5dUdcsSxjfKriaZ-11" vertex="1">
          <mxGeometry y="118" width="230" height="52" as="geometry" />
        </mxCell>
        <mxCell id="TfMtk5dUdcsSxjfKriaZ-23" value="Form1" style="swimlane;fontStyle=1;align=center;verticalAlign=top;childLayout=stackLayout;horizontal=1;startSize=36.8;horizontalStack=0;resizeParent=1;resizeParentMax=0;resizeLast=0;collapsible=0;marginBottom=0;" parent="1" vertex="1">
          <mxGeometry x="60" y="210" width="360" height="140" as="geometry" />
        </mxCell>
        <mxCell id="TfMtk5dUdcsSxjfKriaZ-24" value="-newsLibrary: NewsLibrary" style="text;strokeColor=none;fillColor=none;align=left;verticalAlign=top;spacingLeft=4;spacingRight=4;overflow=hidden;rotatable=0;points=[[0,0.5],[1,0.5]];portConstraint=eastwest;" parent="TfMtk5dUdcsSxjfKriaZ-23" vertex="1">
          <mxGeometry y="36.8" width="360" height="23.2" as="geometry" />
        </mxCell>
        <mxCell id="TfMtk5dUdcsSxjfKriaZ-25" style="line;strokeWidth=1;fillColor=none;align=left;verticalAlign=middle;spacingTop=-1;spacingLeft=3;spacingRight=3;rotatable=0;labelPosition=right;points=[];portConstraint=eastwest;strokeColor=inherit;" parent="TfMtk5dUdcsSxjfKriaZ-23" vertex="1">
          <mxGeometry y="60" width="360" height="8" as="geometry" />
        </mxCell>
        <mxCell id="TfMtk5dUdcsSxjfKriaZ-26" value="+Form1()&#xa;-listView1_SelectedIndexChanged(sender: Object, e: EventArgs)&#xa;-headerPanel_Paint(sender: Object, e: PaintEventArgs)" style="text;strokeColor=none;fillColor=none;align=left;verticalAlign=top;spacingLeft=4;spacingRight=4;overflow=hidden;rotatable=0;points=[[0,0.5],[1,0.5]];portConstraint=eastwest;" parent="TfMtk5dUdcsSxjfKriaZ-23" vertex="1">
          <mxGeometry y="68" width="360" height="72" as="geometry" />
        </mxCell>
        <mxCell id="kip5djwhoxnGDAniL4Qj-1" value="NewsLibrary" style="swimlane;fontStyle=1;align=center;verticalAlign=top;childLayout=stackLayout;horizontal=1;startSize=36.8;horizontalStack=0;resizeParent=1;resizeParentMax=0;resizeLast=0;collapsible=0;marginBottom=0;" vertex="1" parent="1">
          <mxGeometry x="110" y="430" width="260" height="103.6" as="geometry" />
        </mxCell>
        <mxCell id="kip5djwhoxnGDAniL4Qj-2" value="-newsItems: NewsItem[0..*]" style="text;strokeColor=none;fillColor=none;align=left;verticalAlign=top;spacingLeft=4;spacingRight=4;overflow=hidden;rotatable=0;points=[[0,0.5],[1,0.5]];portConstraint=eastwest;" vertex="1" parent="kip5djwhoxnGDAniL4Qj-1">
          <mxGeometry y="36.8" width="260" height="20" as="geometry" />
        </mxCell>
        <mxCell id="kip5djwhoxnGDAniL4Qj-3" style="line;strokeWidth=1;fillColor=none;align=left;verticalAlign=middle;spacingTop=-1;spacingLeft=3;spacingRight=3;rotatable=0;labelPosition=right;points=[];portConstraint=eastwest;strokeColor=inherit;" vertex="1" parent="kip5djwhoxnGDAniL4Qj-1">
          <mxGeometry y="56.8" width="260" height="8" as="geometry" />
        </mxCell>
        <mxCell id="kip5djwhoxnGDAniL4Qj-4" value="+NewsLibrary()&#xa;+getNewsItems(): NewsItem[0..*]" style="text;strokeColor=none;fillColor=none;align=left;verticalAlign=top;spacingLeft=4;spacingRight=4;overflow=hidden;rotatable=0;points=[[0,0.5],[1,0.5]];portConstraint=eastwest;" vertex="1" parent="kip5djwhoxnGDAniL4Qj-1">
          <mxGeometry y="64.8" width="260" height="38.8" as="geometry" />
        </mxCell>
        <mxCell id="kip5djwhoxnGDAniL4Qj-6" value="" style="endArrow=diamondThin;endFill=1;endSize=24;html=1;rounded=0;exitX=0.5;exitY=0;exitDx=0;exitDy=0;entryX=0.498;entryY=0.998;entryDx=0;entryDy=0;entryPerimeter=0;" edge="1" parent="1" source="kip5djwhoxnGDAniL4Qj-1" target="TfMtk5dUdcsSxjfKriaZ-26">
          <mxGeometry width="160" relative="1" as="geometry">
            <mxPoint x="522" y="307" as="sourcePoint" />
            <mxPoint x="280" y="400" as="targetPoint" />
          </mxGeometry>
        </mxCell>
        <mxCell id="kip5djwhoxnGDAniL4Qj-5" value="" style="endArrow=diamondThin;endFill=1;endSize=24;html=1;rounded=0;exitX=0;exitY=0.5;exitDx=0;exitDy=0;entryX=1;entryY=0.25;entryDx=0;entryDy=0;" edge="1" parent="1" source="TfMtk5dUdcsSxjfKriaZ-14" target="kip5djwhoxnGDAniL4Qj-1">
          <mxGeometry width="160" relative="1" as="geometry">
            <mxPoint x="430" y="540" as="sourcePoint" />
            <mxPoint x="430" y="458" as="targetPoint" />
          </mxGeometry>
        </mxCell>
        <mxCell id="kip5djwhoxnGDAniL4Qj-12" value="" style="endArrow=open;endSize=12;dashed=1;html=1;rounded=0;entryX=0;entryY=0.5;entryDx=0;entryDy=0;exitX=1;exitY=0.5;exitDx=0;exitDy=0;" edge="1" parent="1" source="TfMtk5dUdcsSxjfKriaZ-26" target="TfMtk5dUdcsSxjfKriaZ-12">
          <mxGeometry width="160" relative="1" as="geometry">
            <mxPoint x="414" y="610" as="sourcePoint" />
            <mxPoint x="574" y="610" as="targetPoint" />
          </mxGeometry>
        </mxCell>
      </root>
    </mxGraphModel>
  </diagram>
</mxfile>
